<?xml version="1.0" encoding="utf-8"?>
<!-- Generator: Adobe Illustrator 24.3.0, SVG Export Plug-In . SVG Version: 6.00 Build 0)  -->
<svg version="1.1" id="Layer_1" xmlns="http://www.w3.org/2000/svg" xmlns:xlink="http://www.w3.org/1999/xlink" x="0px" y="0px"
	 viewBox="0 0 1280.5 303.8" style="enable-background:new 0 0 1280.5 303.8;" xml:space="preserve">
<path d="M72.3,101v101.8c0,25.7,9.2,40.7,44.8,40.7c23.1,0,54.9-2.7,82.9-7.1l10.1,58c-31.8,6.2-60.7,9.3-93,9.3
	C36.1,303.8,0,267,0,213.4V90.3C0,36.8,36.1,0,117.1,0c32.3,0,61.2,3.1,93,9.3l-10.1,58c-27.9-4.4-59.7-7.1-82.9-7.1
	C81.4,60.2,72.3,75.3,72.3,101z M330.4,4.4h-72.3v294.9h199.5v-58.9H330.4V4.4z M945.8,124c-50.6-11.1-52-11.5-52-39.9
	c0-21.7,7.2-27,39.5-27c28.9,0,52.5,2.7,89.1,8.4l7.2-55.8C994,2.7,960.2,0,932.3,0c-88.2,0-110.8,23.5-110.8,82.4
	c0,63.8,11.6,77.9,89.1,93.4c52.5,10.6,54,13.7,54,40.3c0,24.8-7.2,31.4-44.3,31.4c-33.2,0-63.1-5.8-92.5-14.2l-12,51.4
	c27.5,11.5,66.5,19,103.6,19c96.8,0,117.6-28.8,117.6-87.2C1036.8,158.5,1032.5,143,945.8,124z M1189.5,124
	c-50.6-11.1-52-11.5-52-39.9c0-21.7,7.2-27,39.5-27c28.9,0,52.5,2.7,89.1,8.4l7.2-55.8C1237.6,2.7,1203.9,0,1176,0
	c-88.2,0-110.8,23.5-110.8,82.4c0,63.8,11.6,77.9,89.1,93.4c52.5,10.6,54,13.7,54,40.3c0,24.8-7.2,31.4-44.3,31.4
	c-33.3,0-63.1-5.8-92.5-14.2l-12.1,51.4c27.5,11.5,66.5,19,103.6,19c96.8,0,117.6-28.8,117.6-87.2
	C1280.5,158.5,1276.2,143,1189.5,124z M668.5,4.4h-77.9l-97.8,294.9h75.2h2.8l19.1-57.6h0.2L668.7,4.4H668.5z M660,241.8h32.7
	l17.3,57.6h75.2l-72.3-217L660,241.8z"/>
</svg>
