<?xml version="1.0" encoding="utf-8"?>
<!-- Generator: Adobe Illustrator 24.3.0, SVG Export Plug-In . SVG Version: 6.00 Build 0)  -->
<svg version="1.1" id="Layer_1" xmlns="http://www.w3.org/2000/svg" xmlns:xlink="http://www.w3.org/1999/xlink" x="0px" y="0px"
	 viewBox="0 0 324.2 36.3" style="enable-background:new 0 0 324.2 36.3;" xml:space="preserve">
<style type="text/css">
	.st0{fill:#CF0A2C;}
	.st1{fill:#FFFFFF;}
</style>
<path class="st0" d="M69.9,8.1H43.3l2.2-7.9H72L69.9,8.1z M51.9,21.4h14.3l2.2-7.9H41.8l-6.3,22.8h12.3L51.9,21.4z M82,28
	c-0.3-0.2-0.6-0.4-0.7-0.8c0-0.1,0-0.2,0-0.3s0-0.2,0-0.2l4.8-17.4c0.1-0.6,0.4-0.9,0.8-1.1c0.3-0.2,1-0.3,1.9-0.3H102l2.2-7.9H85.6
	c-3.4,0-5.8,0.4-7.2,1.2C77,2,76.1,3.4,75.5,5.3L68.8,30c-0.1,0.3-0.1,0.8-0.2,1.1c0,0.4,0,0.8,0.1,1.1c0.3,1.2,1.1,2.2,2.4,2.9
	s2.8,1.1,4.7,1.1h19.5l2.2-7.9H83.2C82.7,28.3,82.4,28.1,82,28 M8.6,0L0.2,30.1c-0.1,0.3-0.1,0.8-0.2,1.1c0,0.4,0,0.8,0.1,1.1
	c0.3,1.2,1.1,2.2,2.4,2.9s2.8,1.1,4.7,1.1h13.9c3.4,0,5.8-0.4,7.2-1.2c1.4-0.8,2.3-2.2,2.9-4.1l8.6-31H27.4l-7.5,26.9
	c-0.1,0.6-0.4,0.9-0.8,1.1c-0.3,0.2-1,0.3-1.9,0.3H15c-0.4,0-0.9-0.1-1.2-0.2c-0.3-0.2-0.6-0.4-0.7-0.8c0-0.1,0-0.2,0-0.3
	s0-0.2,0-0.2l7.4-26.7L8.6,0L8.6,0z M162.4,32.3h-60l-1.1,4h60L162.4,32.3z"/>
<path class="st1" d="M114.5,17.3v0.2h7.1l-2.8,10c-2,0.7-4.3,1.3-7.2,1.3c-4.8,0-6.6-2-6.3-4.9c0-0.4,0.1-0.9,0.2-1.3l2.4-8.8
	c1-3.8,3.4-6,8.8-6c2,0,4.8,0.4,6.3,1l-1.4,3.8c-1.6-0.4-4.1-0.8-5.8-0.8c-2.3,0-3.3,1-3.7,2.8l-2,7.1c-0.1,0.3-0.2,0.7-0.2,1
	c-0.2,1.2,0.3,2,2.3,2c1,0,2.2-0.1,3-0.3l1-3.4h-2.7L114.5,17.3L114.5,17.3z M132.8,22.5l10.3-14.4H138l-6.2,9.3l-1.4-9.3h-4.6
	l2.5,14.4l-1.5,5.9h4.6L132.8,22.5z M156.9,28.3h4.3L165.5,8H161l-8.6,13.1L151,8h-4.5l-6.6,20.3h4.5l3.7-11.1l1,8.5h4.6l5.8-8.5
	L156.9,28.3z M181.4,10.2h9.4l0.4-2.3h-11.9l-3.6,20.3h2.6l1.6-8.9h8.7L189,17h-8.7L181.4,10.2z M204.1,28.3h2.8l-4-7.7
	c2.8-0.7,3.6-2.1,4-4.6l0.5-2.9c0.1-0.3,0.1-0.8,0.1-1.1c0-2.5-1.6-4-5.4-4h-7.3l-3.6,20.3h2.6l1.3-7.4h5.1L204.1,28.3z M204.4,15.8
	c-0.4,2.1-1.4,2.8-3.9,2.8h-4.9l1.5-8.4h4.9c2.1,0,3,0.5,3,2c0,0.2,0,0.5-0.1,0.9L204.4,15.8z M223.6,28.3h2.6L223,7.9h-3.7
	l-10.2,20.3h2.7l2.5-4.9h8.5L223.6,28.3z M220.9,9.7l1.6,11.4h-7.1L220.9,9.7z M240.9,28.3h3.5L248,7.9h-2.5l-3.1,17.6l-5.9-17.6
	h-3.4l-3.6,20.3h2.5l3.1-17.3L240.9,28.3z M256,28.6c1.7,0,3.9-0.2,5.5-0.6l-0.1-2.2c-1.6,0.3-3.5,0.5-4.9,0.5
	c-2.9,0-3.9-0.8-3.9-2.6c0-0.4,0-0.8,0.1-1.3l1.5-8.5c0.5-3.1,1.8-4,5.2-4c1.3,0,3.2,0.2,4.8,0.6l0.5-2.2c-1.6-0.4-3.5-0.6-5.1-0.6
	c-4.9,0-7.1,1.7-7.9,5.9l-1.6,8.8c-0.1,0.6-0.2,1-0.2,1.5C250,26.7,251.7,28.6,256,28.6z M276.7,28.3h2.6L282.9,8h-2.6l-1.6,8.8
	h-8.8l1.6-8.8h-2.6l-3.6,20.3h2.6l1.6-9.2h8.8L276.7,28.3z M284.6,28.3h2.6L290.8,8h-2.6L284.6,28.3z M297.9,28.6
	c5.5,0,6.7-1.8,7.4-5.5c0.2-0.8,0.2-1.6,0.2-2.1c0-2-1.1-3-4.8-4c-2.8-0.8-3.6-1.1-3.6-2.4c0-0.4,0.1-1,0.2-1.7c0.4-2.4,1.1-3,4.5-3
	c1.3,0,3.3,0.2,5,0.6l0.5-2.2c-1.6-0.4-3.8-0.7-5.3-0.7c-4.9,0-6.5,1.1-7.2,5.2c-0.1,0.8-0.2,1.4-0.2,2c0,2.1,1.1,3.3,4.6,4.2
	c3,0.8,3.8,1.1,3.8,2.4c0,0.4-0.1,0.9-0.2,1.6c-0.4,2.4-1.3,3.3-4.5,3.3c-1.7,0-3.6-0.4-5.5-0.9l-0.6,2
	C293.7,28.1,296.1,28.6,297.9,28.6z M308.8,28.3h11.8L321,26h-9.3l1.3-7h8.6l0.4-2.3h-8.5l1.1-6.5h9.2l0.4-2.3h-11.8L308.8,28.3z"/>
</svg>
