<?xml version="1.0" encoding="utf-8"?>
<!-- Generator: Adobe Illustrator 24.3.0, SVG Export Plug-In . SVG Version: 6.00 Build 0)  -->
<svg version="1.1" id="Layer_1" xmlns="http://www.w3.org/2000/svg" xmlns:xlink="http://www.w3.org/1999/xlink" x="0px" y="0px"
	 viewBox="0 0 534 117.1" style="enable-background:new 0 0 534 117.1;" xml:space="preserve">
<path d="M225.5,26h-85.8l7-25.6h85.8L225.5,26z M167.4,69.1h46.2l7-25.6h-85.8L114.5,117h39.6L167.4,69.1z M264.7,90.5
	c-1.1-0.7-1.8-1.4-2.1-2.5c0-0.4,0-0.7,0-1.1s0-0.7,0-0.7l15.4-56c0.4-1.8,1.4-2.8,2.5-3.5s3.2-1.1,6-1.1h42.7l7-25.6h-59.9
	c-10.9,0-18.6,1.4-23.1,3.9s-7.4,7-9.5,13.3L222,97c-0.4,1.1-0.4,2.5-0.7,3.5c0,1.4,0,2.5,0.4,3.5c1.1,3.9,3.5,7,7.7,9.5
	c4.2,2.1,9.1,3.5,15.1,3.5h63l7-25.6h-45.9C266.9,91.2,265.8,90.8,264.7,90.5 M27.7,0.1l-27,97c-0.4,1.1-0.4,2.5-0.7,3.5
	c0,1.4,0,2.5,0.4,3.5c1.1,3.9,3.5,7,7.7,9.5c4.2,2.1,9.1,3.5,15.1,3.5H68c10.9,0,18.6-1.4,23.1-3.9c4.6-2.5,7.4-7,9.5-13.3
	l27.7-99.8H88.4L64.2,86.9c-0.4,1.8-1.4,2.8-2.5,3.5s-3.2,1.1-6,1.1h-7c-1.4,0-2.8-0.4-3.9-0.7c-1.1-0.7-1.8-1.4-2.1-2.5
	c0-0.4,0-0.7,0-1.1s0-0.7,0-0.7L66.5,0.4H27.7V0.1z M524.2,104.1H330.6l-3.5,13h193.6L524.2,104.1z M338.9,77.2 M369.7,55.8
	l-3.2,11.9h8.8l-3.2,10.9c-2.8,0.7-6.7,1.1-9.8,1.1c-6.3,0-8.1-2.5-7.4-6.3c0-1.1,0.4-2.1,0.7-3.2l6.3-22.8c1.4-6,4.6-9.1,11.9-9.1
	c5.3,0,13.3,1.1,18.6,2.5l4.6-12.3c-4.9-1.8-13.7-3.2-20.3-3.2c-17.5,0-25.2,7-28.4,19.3L340.6,73c-0.4,1.4-0.7,2.8-0.7,4.2
	c-1.1,9.5,4.9,15.8,20.3,15.8c9.1,0,16.8-1.8,23.1-4.2l9.1-32.2h-22.8v-0.8H369.7z M428.6,72.6L461.9,26h-16.5l-20,30.1L420.8,26
	h-14.7l8.1,46.6l-4.9,18.9H424L428.6,72.6z M506.3,91.2h14L534,25.7h-14.4l-27.7,42.4l-4.6-42.4h-14.4l-21.4,65.5h14.4l11.9-35.7
	l3.2,27.3h14.7l18.6-27.3L506.3,91.2z"/>
</svg>
